<?xml version="1.0" encoding="iso-8859-1"?>
<!-- Generator: Adobe Illustrator 16.0.0, SVG Export Plug-In . SVG Version: 6.00 Build 0)  -->
<!DOCTYPE svg PUBLIC "-//W3C//DTD SVG 1.1//EN" "http://www.w3.org/Graphics/SVG/1.1/DTD/svg11.dtd">
<svg xmlns="http://www.w3.org/2000/svg" xmlns:xlink="http://www.w3.org/1999/xlink" version="1.1" id="Capa_1" x="0px" y="0px" width="512px" height="512px" viewBox="0 0 93.138 93.138" style="enable-background:new 0 0 93.138 93.138;" xml:space="preserve">
<g>
	<g>
		<path d="M88.895,63.415H74.49v-5.062c0-1.627-0.933-3.111-2.396-3.82c-0.588-0.285-1.221-0.424-1.848-0.424    c-0.939,0-1.869,0.311-2.636,0.914l-2.983,2.361l-8.97-4.131l-4.946-4.17l-8.502,8.454l-8.523-8.454l-4.947,4.17l-10.299,4.741    c-1.523,0.625-2.875,1.705-3.781,3.228L0,85.731h63.504l4.109,3.252c1.274,1.008,3.016,1.201,4.481,0.492    c1.463-0.709,2.396-2.193,2.396-3.82v-5.066h14.404c2.344,0,4.243-1.897,4.243-4.244v-8.686    C93.138,65.315,91.238,63.415,88.895,63.415z M88.895,76.345H70.246v9.311L52.992,72.003l17.254-13.649v9.307h18.648V76.345z" fill="#FFFFFF"/>
		<path d="M42.144,50.103v0.002c0.008,0,0.02-0.002,0.029-0.002c0.004,0,0.012,0.002,0.02,0.002c0,0,0.004,0,0.006,0    c0.004,0,0.006,0,0.008,0c0.006,0,0.014-0.002,0.02-0.002c0.01,0,0.02,0.002,0.029,0.002v-0.002    c12.004,0.182,19.301-10.324,19.49-27.646c0.121-12.018-7.332-18.889-19.469-19.213V3.239c-0.02,0-0.033,0.002-0.051,0.002V3.239    c-0.012,0-0.02,0-0.027,0.002c-0.008-0.002-0.018-0.002-0.026-0.002v0.002c-0.02,0-0.033-0.002-0.049-0.002v0.004    c-12.139,0.324-19.592,7.195-19.471,19.213C22.841,39.778,30.138,50.284,42.144,50.103z" fill="#FFFFFF"/>
	</g>
</g>
<g>
</g>
<g>
</g>
<g>
</g>
<g>
</g>
<g>
</g>
<g>
</g>
<g>
</g>
<g>
</g>
<g>
</g>
<g>
</g>
<g>
</g>
<g>
</g>
<g>
</g>
<g>
</g>
<g>
</g>
</svg>
