<?xml version="1.0" encoding="iso-8859-1"?>
<!-- Generator: Adobe Illustrator 19.0.0, SVG Export Plug-In . SVG Version: 6.00 Build 0)  -->
<svg version="1.1" id="Capa_1" xmlns="http://www.w3.org/2000/svg" xmlns:xlink="http://www.w3.org/1999/xlink" x="0px" y="0px"
	 viewBox="0 0 480 480" style="enable-background:new 0 0 480 480;" xml:space="preserve">
<g>
	<g>
		<path d="M472,208h-24v-96c0-4.416-3.584-8-8-8h-24V8c0-4.416-3.584-8-8-8H8C3.584,0,0,3.584,0,8v192v32
			c0,19.312,13.768,35.472,32,39.192V304v32c0,19.312,13.768,35.472,32,39.192V408v32c0,22.056,17.944,40,40,40h336
			c22.056,0,40-17.944,40-40v-32V216C480,211.584,476.416,208,472,208z M32,254.632c-9.312-3.304-16-12.2-16-22.632v-24h16V254.632z
			 M40,104c-4.416,0-8,3.584-8,8v80H16V16h384v88H211.312l-10.808-10.808C201.648,90.168,204.576,88,208,88c4.408,0,8,3.592,8,8h16
			c0-10.416-6.712-19.216-16-22.528V64h-16v9.472c-9.288,3.312-16,12.112-16,22.528c0,2.12,0.84,4.16,2.344,5.656l2.344,2.344H40z
			 M64,358.632c-9.312-3.304-16-12.2-16-22.632v-24h16V358.632z M72,208c-4.416,0-8,3.584-8,8v80H48v-32v-64v-80h360h24v88H243.312
			l-10.808-10.808c1.144-3.024,4.072-5.192,7.496-5.192c4.408,0,8,3.592,8,8h16c0-10.416-6.712-19.216-16-22.528V168h-16v9.472
			c-9.288,3.312-16,12.112-16,22.528c0,2.12,0.84,4.16,2.344,5.656l2.344,2.344H72z M464,440c0,13.232-10.768,24-24,24H104
			c-13.232,0-24-10.768-24-24v-24h236.176c1.592,2.376,3.352,4.624,5.216,6.792c0.256,0.296,0.52,0.568,0.784,0.856
			c1.608,1.808,3.296,3.536,5.072,5.176c0.36,0.328,0.712,0.656,1.08,0.984c1.968,1.744,4.016,3.392,6.168,4.92
			c0.072,0.048,0.136,0.104,0.208,0.16c4.648,3.272,9.688,5.984,15.048,8.088c0.296,0.12,0.6,0.216,0.896,0.328
			c2.24,0.848,4.52,1.576,6.856,2.2c0.576,0.152,1.152,0.304,1.736,0.448c2.12,0.512,4.272,0.912,6.464,1.224
			c0.656,0.096,1.296,0.224,1.952,0.296c2.744,0.32,5.52,0.528,8.344,0.528c2.824,0,5.6-0.208,8.344-0.528
			c0.656-0.08,1.296-0.2,1.952-0.296c2.184-0.312,4.344-0.72,6.464-1.224c0.584-0.144,1.152-0.288,1.736-0.448
			c2.336-0.624,4.624-1.352,6.856-2.2c0.296-0.112,0.6-0.216,0.896-0.328c5.36-2.112,10.4-4.824,15.048-8.088
			c0.072-0.048,0.136-0.104,0.208-0.16c2.152-1.528,4.2-3.176,6.168-4.92c0.368-0.32,0.72-0.648,1.08-0.984
			c1.776-1.64,3.472-3.36,5.072-5.176c0.256-0.288,0.528-0.568,0.784-0.856c1.856-2.168,3.616-4.416,5.216-6.792H464V440z M320,376
			c0-30.88,25.12-56,56-56s56,25.12,56,56c0,2.264-0.176,4.52-0.448,6.768c-0.064,0.504-0.152,1-0.232,1.496
			c-0.28,1.864-0.64,3.712-1.112,5.536c-0.096,0.368-0.184,0.744-0.288,1.112c-1.256,4.488-3.056,8.84-5.4,12.928
			c-0.072,0.128-0.152,0.248-0.232,0.384c-1.144,1.952-2.408,3.824-3.768,5.608c-0.128,0.168-0.248,0.344-0.376,0.504
			c-2.936,3.76-6.312,7.112-10.032,9.976c-0.128,0.096-0.248,0.184-0.376,0.28c-1.848,1.4-3.776,2.696-5.776,3.856
			c-0.016,0.008-0.032,0.024-0.048,0.032c-4.056,2.344-8.408,4.152-12.936,5.424c-0.36,0.096-0.72,0.184-1.08,0.28
			c-1.816,0.472-3.672,0.832-5.536,1.12c-0.512,0.08-1.024,0.176-1.536,0.232C380.568,431.824,378.296,432,376,432
			c-2.296,0-4.568-0.176-6.816-0.456c-0.52-0.064-1.024-0.16-1.536-0.232c-1.872-0.288-3.72-0.648-5.536-1.12
			c-0.36-0.096-0.72-0.176-1.08-0.28c-4.528-1.272-8.88-3.08-12.936-5.424c-0.016-0.008-0.032-0.024-0.048-0.032
			c-2-1.16-3.928-2.456-5.776-3.856c-0.128-0.096-0.248-0.184-0.376-0.28c-3.728-2.872-7.104-6.216-10.032-9.976
			c-0.128-0.168-0.248-0.336-0.376-0.504c-1.36-1.784-2.616-3.648-3.768-5.608c-0.072-0.128-0.16-0.248-0.232-0.384
			c-2.352-4.088-4.152-8.44-5.4-12.928c-0.104-0.368-0.192-0.744-0.288-1.112c-0.472-1.824-0.832-3.672-1.112-5.536
			c-0.072-0.496-0.168-0.992-0.232-1.496C320.176,380.52,320,378.264,320,376z M464,400h-20.152c0.096-0.272,0.16-0.56,0.256-0.84
			c0.432-1.264,0.824-2.544,1.184-3.832c0.248-0.88,0.472-1.76,0.68-2.648c0.28-1.176,0.552-2.352,0.776-3.552
			c0.224-1.184,0.384-2.376,0.544-3.568c0.128-0.952,0.28-1.896,0.368-2.856C447.872,380.472,448,378.24,448,376
			c0-39.696-32.304-72-72-72s-72,32.304-72,72c0,2.24,0.128,4.472,0.336,6.704c0.088,0.968,0.24,1.904,0.368,2.856
			c0.16,1.192,0.328,2.384,0.544,3.568c0.224,1.2,0.496,2.376,0.776,3.552c0.216,0.888,0.44,1.768,0.68,2.648
			c0.36,1.296,0.752,2.568,1.184,3.832c0.096,0.28,0.16,0.56,0.256,0.84H80v-32v-64v-80h360h24V400z"/>
	</g>
</g>
<g>
	<g>
		<path d="M292.8,321.6l-28.032-21.024c1.288-2.704,4.048-4.576,7.232-4.576c4.408,0,8,3.592,8,8h16
			c0-10.416-6.712-19.216-16-22.528V272h-16v9.472c-9.288,3.312-16,12.112-16,22.528c0,2.52,1.184,4.888,3.2,6.4l28.032,21.024
			C277.944,334.128,275.184,336,272,336c-4.408,0-8-3.592-8-8h-16c0,10.416,6.712,19.216,16,22.528V360h16v-9.472
			c9.288-3.312,16-12.112,16-22.528C296,325.48,294.816,323.112,292.8,321.6z"/>
	</g>
</g>
<g>
	<g>
		<polygon points="384,368 384,344 368,344 368,368 344,368 344,384 368,384 368,408 384,408 384,384 408,384 408,368 		"/>
	</g>
</g>
<g>
</g>
<g>
</g>
<g>
</g>
<g>
</g>
<g>
</g>
<g>
</g>
<g>
</g>
<g>
</g>
<g>
</g>
<g>
</g>
<g>
</g>
<g>
</g>
<g>
</g>
<g>
</g>
<g>
</g>
</svg>
